<svg xmlns="http://www.w3.org/2000/svg" viewBox="0 0 512 512">
  <path d="M256 0c141.385 0 256 114.615 256 256S397.385 512 256 512 0 397.385 0 256 114.615 0 256 0zm118.933 200.267H136.533c-4.267 0-8.533 4.267-8.533 8.533v93.867c0 4.267 4.266 8.533 8.533 8.533h238.934c4.267 0 8.533-4.266 8.533-8.533V208.8c0-4.266-4.267-8.533-8.533-8.533zM256 349.867c-51.2 0-93.867-42.667-93.867-93.867S204.8 162.133 256 162.133 349.867 204.8 349.867 256 307.2 349.867 256 349.867zm0-153.6c-34.133 0-59.733 25.6-59.733 59.733S221.867 315.733 256 315.733 315.733 290.133 315.733 256 290.133 196.267 256 196.267z"/>
</svg> 