<svg xmlns="http://www.w3.org/2000/svg" viewBox="0 0 512 512">
  <path d="M256 0c141.385 0 256 114.615 256 256S397.385 512 256 512 0 397.385 0 256 114.615 0 256 0zm149.973 301.854c-12.563 46.322-31.283 76.978-56.162 91.97-24.879 15.991-55.063 15.991-90.55 0-11.563-5.197-24.678-12.563-39.347-22.097-14.669 9.534-27.784 16.9-39.347 22.097-35.487 15.991-65.671 15.991-90.55 0-24.879-14.991-43.599-45.647-56.162-91.97-1.732-6.397-1.732-12.128 0-17.194 1.732-4.531 5.197-8.397 10.397-11.563 5.197-2.632 10.397-3.947 15.594-3.947 5.197 0 10.831 1.315 16.897 3.947 6.066 2.632 10.831 5.831 14.231 9.563 3.397 3.732 6.794 8.397 10.194 14.031 3.397 5.634 5.563 9.897 6.463 12.794 1.732 4.531 3.831 8.831 6.331 12.897 2.497 4.066 5.331 7.331 8.463 9.794 3.131 2.466 6.794 3.697 10.994 3.697 4.197 0 8.794-1.897 13.794-5.697 4.997-3.797 9.794-8.794 14.397-14.991 4.597-6.197 8.994-12.794 13.194-19.794 4.197-6.997 7.463-13.794 9.794-20.397-2.331-6.597-5.597-13.397-9.794-20.397-4.197-6.997-8.597-13.594-13.194-19.794-4.597-6.197-9.397-11.194-14.397-14.991-4.997-3.797-9.597-5.697-13.794-5.697-4.197 0-7.863 1.231-10.994 3.697-3.131 2.466-5.966 5.731-8.463 9.794-2.497 4.066-4.597 8.366-6.331 12.897-.9 2.897-3.066 7.163-6.463 12.794-3.397 5.634-6.794 10.297-10.194 14.031-3.397 3.732-8.163 6.931-14.231 9.563-6.066 2.632-11.697 3.947-16.897 3.947-5.197 0-10.397-1.315-15.594-3.947-5.197-3.166-8.663-7.034-10.397-11.563-1.732-5.066-1.732-10.797 0-17.194 12.563-46.322 31.283-76.978 56.162-91.97 24.879-14.991 55.063-14.991 90.55 0 11.563 5.197 24.678 12.563 39.347 22.097 14.669-9.534 27.784-16.9 39.347-22.097 35.487-14.991 65.671-14.991 90.55 0 24.879 14.991 43.599 45.647 56.162 91.97 1.732 6.397 1.732 12.128 0 17.194-1.732 4.531-5.197 8.397-10.397 11.563-5.197 2.632-10.397 3.947-15.594 3.947-5.197 0-10.831-1.315-16.897-3.947-6.066-2.632-10.831-5.831-14.231-9.563-3.397-3.732-6.794-8.397-10.194-14.031-3.397-5.634-5.563-9.897-6.463-12.794-1.732-4.531-3.831-8.831-6.331-12.897-2.497-4.066-5.331-7.331-8.463-9.794-3.131-2.466-6.794-3.697-10.994-3.697-4.197 0-8.794 1.897-13.794 5.697-4.997 3.797-9.794 8.794-14.397 14.991-4.597 6.197-8.994 12.794-13.194 19.794-4.197 6.997-7.463 13.794-9.794 20.397 2.331 6.597 5.597 13.397 9.794 20.397 4.197 6.997 8.597 13.594 13.194 19.794 4.597 6.197 9.397 11.194 14.397 14.991 4.997 3.797 9.597 5.697 13.794 5.697 4.197 0 7.863-1.231 10.994-3.697 3.131-2.466 5.966-5.731 8.463-9.794 2.497-4.066 4.597-8.366 6.331-12.897.9-2.897 3.066-7.163 6.463-12.794 3.397-5.634 6.794-10.297 10.194-14.031 3.397-3.732 8.163-6.931 14.231-9.563 6.066-2.632 11.697-3.947 16.897-3.947 5.197 0 10.397 1.315 15.594 3.947 5.197 3.166 8.663 7.034 10.397 11.563 1.732 5.066 1.732 10.797 0 17.194z"/>
</svg> 